<?xml version="1.0" encoding="utf-8"?>
<!-- Generator: Adobe Illustrator 21.0.2, SVG Export Plug-In . SVG Version: 6.00 Build 0)  -->
<svg version="1.1" id="_x3C_Layer_x3E_" xmlns="http://www.w3.org/2000/svg" xmlns:xlink="http://www.w3.org/1999/xlink" x="0px"
	 y="0px" viewBox="0 0 20 20" style="enable-background:new 0 0 20 20;" xml:space="preserve">
<style type="text/css">
	.st0{fill:#FFFFFF;}
	.st1{fill:#353535;}
	.st2{fill:#F58220;}
</style>
<g>
	<g>
		<line class="st0" x1="14" y1="10" x2="15.5" y2="10"/>
		<rect x="14" y="9.7" class="st1" width="1.5" height="0.7"/>
	</g>
	<g>
		<g>
			<path class="st2" d="M4.4,11.5c-0.9,0-1.6-0.7-1.6-1.6s0.7-1.6,1.6-1.6S6,9,6,9.9S5.3,11.5,4.4,11.5z M4.4,9
				C3.9,9,3.5,9.4,3.5,9.9s0.4,0.9,0.9,0.9c0.5,0,0.9-0.4,0.9-0.9S4.9,9,4.4,9z"/>
		</g>
		<g>
			<g>
				<polygon class="st2" points="8,8 8,11.7 14,14.5 14,5.5 				"/>
				<g>
					<rect x="4.7" y="8" class="st0" width="3.3" height="3.7"/>
					<path class="st1" d="M8.4,12.1h-4V7.7h4V12.1z M5.1,11.4h2.6V8.4H5.1V11.4z"/>
				</g>
			</g>
		</g>
	</g>
	<circle class="st2" cx="16.3" cy="10" r="0.9"/>
</g>
</svg>
