<?xml version="1.0" encoding="utf-8"?>
<!-- Generator: Adobe Illustrator 21.0.2, SVG Export Plug-In . SVG Version: 6.00 Build 0)  -->
<svg version="1.1" id="Layer_1" xmlns="http://www.w3.org/2000/svg" xmlns:xlink="http://www.w3.org/1999/xlink" x="0px" y="0px"
	 viewBox="0 0 150.6 17" style="enable-background:new 0 0 150.6 17;" xml:space="preserve">
<style type="text/css">
	.st0{fill:#FFFFFF;}
</style>
<g>
	<path class="st0" d="M13.5,16c-1,0.3-2.8,0.9-5.1,0.9c-2.5,0-4.5-0.6-6.2-2.2C0.9,13.4,0,11.2,0,8.6c0-4.9,3.4-8.5,8.9-8.5
		c1.9,0,3.4,0.4,4.1,0.8l-0.5,1.7c-0.9-0.4-2-0.7-3.6-0.7c-4,0-6.6,2.5-6.6,6.6c0,4.2,2.5,6.6,6.4,6.6c1.4,0,2.3-0.2,2.8-0.4V9.8
		H8.1V8.1h5.4V16z"/>
	<path class="st0" d="M29.3,0.3v16.5h-2.1V0.3H29.3z"/>
	<path class="st0" d="M46.1,16.7L40.7,0.3H43l2.6,8.1c0.7,2.2,1.3,4.2,1.8,6.2h0c0.5-1.9,1.1-4,1.9-6.1L52,0.3h2.3l-5.9,16.5H46.1z"
		/>
	<path class="st0" d="M75,9h-6.4V15h7.1v1.8h-9.3V0.3h8.9v1.8h-6.8v5.2H75V9z"/>
	<path class="st0" d="M91.4,16.7v-7l-5.2-9.5h2.4l2.3,4.5c0.6,1.2,1.1,2.2,1.6,3.4h0c0.5-1.1,1-2.2,1.7-3.4l2.4-4.5H99l-5.5,9.5v7
		H91.4z"/>
	<path class="st0" d="M125.4,8.3c0,5.7-3.4,8.7-7.6,8.7c-4.3,0-7.4-3.4-7.4-8.4c0-5.2,3.2-8.7,7.6-8.7C122.5,0,125.4,3.4,125.4,8.3z
		 M112.6,8.6c0,3.5,1.9,6.7,5.3,6.7c3.4,0,5.3-3.1,5.3-6.8c0-3.3-1.7-6.7-5.3-6.7C114.3,1.7,112.6,5,112.6,8.6z"/>
	<path class="st0" d="M140.6,0.3V10c0,3.7,1.6,5.3,3.8,5.3c2.4,0,4-1.6,4-5.3V0.3h2.2v9.6c0,5.1-2.7,7.1-6.2,7.1
		c-3.4,0-5.9-1.9-5.9-7V0.3H140.6z"/>
</g>
</svg>
